<?xml version="1.0" encoding="utf-8"?>
<!-- Generator: Adobe Illustrator 23.0.2, SVG Export Plug-In . SVG Version: 6.00 Build 0)  -->
<svg version="1.1" id="Layer_1" xmlns="http://www.w3.org/2000/svg" xmlns:xlink="http://www.w3.org/1999/xlink" x="0px" y="0px"
	 viewBox="0 0 462 148" style="enable-background:new 0 0 462 148;" xml:space="preserve">
<style type="text/css">
	.st0{fill:#F87000;}
	.st1{fill:#333333;}
</style>
<g>
	<g>
		<g>
			<g>
				<g>
					<path class="st0" d="M120,134.4c-4.2,0-8.2-1.6-11.1-4.6c-3-3-4.6-6.9-4.6-11.1c0-4.2,1.6-8.1,4.6-11.1c3-3,6.9-4.6,11.1-4.6
						c4.2,0,8.1,1.6,11.1,4.6c6.1,6.1,6.1,16.1,0,22.2C128.2,132.8,124.2,134.4,120,134.4z"/>
				</g>
				<g>
					<path class="st0" d="M34.6,50.6c-4.2,0-8.2-1.6-11.1-4.6c-3-3-4.6-6.9-4.6-11.1c0-4.2,1.6-8.1,4.6-11.1c3-3,6.9-4.6,11.1-4.6
						c4.2,0,8.1,1.6,11.1,4.6c3,3,4.6,6.9,4.6,11.1c0,4.2-1.6,8.2-4.6,11.1C42.8,48.9,38.8,50.6,34.6,50.6z"/>
				</g>
				<path class="st0" d="M119.3,50.1c-4.2,0-8.2-1.6-11.1-4.6c-6.1-6.1-6.1-16.1,0-22.2c3-3,6.9-4.6,11.1-4.6
					c4.2,0,8.1,1.6,11.1,4.6c6.1,6.1,6.1,16.1,0,22.2C127.5,48.5,123.5,50.1,119.3,50.1z"/>
				<g>
					<path class="st0" d="M35,134.4c-4.2,0-8.2-1.6-11.1-4.6c-3-3-4.6-6.9-4.6-11.1c0-4.2,1.6-8.1,4.6-11.1c0.6-0.6,1.3-1.2,2.2-1.8
						c0.3-0.2,0.5-0.3,0.8-0.5c0.6-0.3,1.2-0.6,1.7-0.9c0.3-0.1,0.6-0.3,0.9-0.4c0.6-0.2,1.2-0.4,1.9-0.6c0.1,0,0.3-0.1,0.4-0.1
						c0.1,0,0.2,0,0.2-0.1l3.5-0.2c0.4,0,0.9,0.1,1.4,0.1l0.2,0c0.1,0,0.3,0,0.4,0l0.1,0l0.2,0h0.1c0.3,0,0.5,0,0.8,0
						c6,0,12-2.6,16.3-7c4.3-4.5,6.7-10.5,6.6-16.5l0-0.2l0-0.2c0-0.2,0-0.3-0.1-0.5c0-0.2,0-0.4-0.1-0.6l0-0.4
						c0-0.3-0.1-0.6-0.1-0.9l0.3-3.5c0-0.1,0-0.2,0.1-0.3l0.1-0.2c0.2-0.7,0.3-1.3,0.6-2c0.1-0.4,0.3-0.6,0.4-0.9
						c0.3-0.6,0.6-1.2,0.9-1.7c0.1-0.2,0.3-0.5,0.5-0.7c0.6-0.9,1.2-1.6,1.8-2.2c3-3,6.9-4.6,11.1-4.6c4.2,0,8.2,1.6,11.1,4.6
						c6.1,6.1,6.1,16.1,0,22.2c-0.6,0.6-1.3,1.2-2.2,1.8c-0.3,0.2-0.5,0.3-0.8,0.5c-0.6,0.3-1.1,0.6-1.7,0.9
						c-0.3,0.1-0.6,0.3-0.9,0.4c-0.6,0.2-1.2,0.4-1.9,0.6l-0.4,0.1c-0.1,0-0.2,0.1-0.3,0.1l-3.5,0.3c-0.4,0-0.8-0.1-1.3-0.1l-0.3,0
						c-0.1,0-0.3,0-0.4,0l-0.1,0l-0.2,0h-0.1c-0.3,0-0.5,0-0.8,0c-6,0-12,2.6-16.3,7c-4.3,4.5-6.7,10.5-6.6,16.5l0,0.2l0,0.2
						c0,0.2,0,0.3,0.1,0.5c0,0.2,0,0.4,0.1,0.6c0,0.1,0,0.3,0.1,0.5c0,0.2,0.1,0.5,0.1,0.7v0.1l-0.3,3.4c0,0.1-0.1,0.5-0.2,0.6
						c-0.2,0.7-0.4,1.4-0.6,1.9c-0.1,0.3-0.2,0.6-0.4,0.9c-0.3,0.6-0.6,1.2-0.9,1.8c-0.1,0.2-0.3,0.5-0.5,0.8
						c-0.6,0.8-1.2,1.6-1.8,2.2C43.2,132.8,39.2,134.4,35,134.4L35,134.4z"/>
				</g>
				<path class="st0" d="M77.5,134.4c-4.2,0-8.2-1.6-11.1-4.6c-3-3-4.6-6.9-4.6-11.1c0-4.2,1.6-8.1,4.6-11.1
					c0.6-0.6,1.3-1.2,2.2-1.8c0.2-0.2,0.5-0.3,0.7-0.5c0.6-0.3,1.1-0.6,1.7-0.9c0.3-0.1,0.6-0.3,0.9-0.4c0.6-0.2,1.2-0.4,1.9-0.6
					c0,0,0.6-0.2,0.6-0.2L78,103c0.4,0,0.9,0.1,1.3,0.1l0.3,0c0.2,0,0.3,0,0.5,0c0.1,0,0.1,0,0.2,0l0.1,0l0.1,0c0.3,0,0.5,0,0.8,0
					c6,0,12-2.6,16.3-7c4.3-4.5,6.7-10.5,6.6-16.5l0-0.7l-0.1-0.1c0,0,0-0.1,0-0.1c0-0.2,0-0.3,0-0.5l-0.1-0.5
					c0-0.3-0.1-0.6-0.1-0.8l0.2-3.4c0-0.1,0.1-0.5,0.2-0.6c0.2-0.8,0.4-1.4,0.6-1.9c0.1-0.3,0.2-0.6,0.4-0.9
					c0.3-0.5,0.5-1.1,0.9-1.7l0.1-0.1c0.1-0.2,0.2-0.4,0.4-0.6c0.6-0.9,1.2-1.6,1.8-2.2c3-3,6.9-4.6,11.1-4.6
					c4.2,0,8.1,1.6,11.1,4.6c6.1,6.1,6.1,16.1,0,22.2c-0.6,0.6-1.3,1.2-2.2,1.8c-0.2,0.1-0.3,0.2-0.5,0.3l-0.3,0.2
					c-0.5,0.3-1.1,0.6-1.7,0.9c-0.3,0.1-0.6,0.3-0.9,0.4c-0.6,0.2-1.2,0.4-1.9,0.6c-0.2,0-0.3,0.1-0.4,0.1c-0.1,0-0.2,0-0.2,0.1
					l-3.5,0.2c-0.5,0-1.1-0.1-1.6-0.2c-0.2,0-0.3,0-0.5,0c-0.1,0-0.1,0-0.2,0l-0.3,0c-0.3,0-0.5,0-0.8,0c-6,0-12,2.6-16.3,7
					c-4.3,4.5-6.7,10.5-6.5,16.5l0,0.2l0,0.2c0,0.2,0,0.4,0.1,0.5c0,0.2,0,0.4,0,0.5c0,0.1,0,0.3,0.1,0.5c0,0.3,0.1,0.5,0.1,0.8
					l-0.3,3.5c0,0.1-0.2,0.5-0.2,0.5c-0.2,0.7-0.4,1.4-0.6,2c-0.1,0.3-0.2,0.6-0.4,0.8l0,0.1c-0.3,0.6-0.6,1.1-0.9,1.7
					c-0.2,0.3-0.3,0.5-0.5,0.8c-0.6,0.9-1.2,1.6-1.8,2.2C85.6,132.8,81.7,134.4,77.5,134.4L77.5,134.4z"/>
				<path class="st0" d="M35,91.9c-4.2,0-8.2-1.6-11.1-4.6c-3-3-4.6-6.9-4.6-11.1c0-4.2,1.6-8.1,4.6-11.1c0.6-0.6,1.3-1.2,2.2-1.8
					c0.2-0.2,0.5-0.3,0.8-0.5c0.5-0.3,1.1-0.6,1.7-0.9c0.3-0.1,0.6-0.3,0.9-0.4c0.6-0.2,1.2-0.4,1.9-0.5l0.4-0.1
					c0.1,0,0.1,0,0.2-0.1l3.6-0.3c0.5,0,1,0.1,1.5,0.2l0.1,0c0.2,0,0.3,0,0.5,0c0.1,0,0.1,0,0.2,0l0.2,0l0.1,0c0.3,0,0.5,0,0.8,0
					c6,0,12-2.6,16.3-7c4.3-4.5,6.7-10.5,6.5-16.5l0-0.2l0-0.2c0-0.2,0-0.4-0.1-0.6c0-0.2,0-0.3,0-0.5l-0.1-0.5
					c0-0.3-0.1-0.6-0.1-0.9l0.2-3.3l0-0.1v-0.1c0-0.1,0.1-0.5,0.1-0.5c0.2-0.8,0.4-1.5,0.6-2c0.1-0.3,0.3-0.6,0.4-0.9
					c0.3-0.6,0.6-1.1,0.9-1.7l0.1-0.1c0.1-0.2,0.3-0.5,0.4-0.7c0.6-0.9,1.2-1.6,1.8-2.2c3-3,6.9-4.6,11.1-4.6
					c4.2,0,8.2,1.6,11.1,4.6c6.1,6.1,6.1,16.1,0,22.2c-0.6,0.6-1.3,1.2-2.2,1.8c-0.2,0.2-0.4,0.3-0.7,0.4l-0.1,0.1
					c-0.6,0.3-1.1,0.6-1.7,0.9c-0.3,0.1-0.6,0.3-0.9,0.4c-0.6,0.2-1.2,0.4-1.9,0.6c-0.1,0-0.3,0.1-0.4,0.1c-0.1,0-0.2,0-0.2,0.1
					l-3.5,0.2c-0.4,0-0.9-0.1-1.4-0.1l-0.2,0c-0.2,0-0.3,0-0.5,0c-0.1,0-0.1,0-0.2,0l-0.1,0l-0.2,0c-0.3,0-0.5,0-0.8,0
					c-6,0-12,2.6-16.3,7C52.6,61,50.3,67,50.4,73l0,0.2l0,0.2c0,0.2,0,0.4,0.1,0.5c0,0.2,0,0.4,0,0.6c0,0.1,0,0.3,0.1,0.5
					c0,0.3,0.1,0.5,0.1,0.8l-0.3,3.4c0,0.1,0,0.2-0.1,0.3l-0.1,0.3c-0.2,0.8-0.4,1.4-0.6,2c-0.1,0.3-0.3,0.6-0.4,0.9
					c-0.3,0.6-0.6,1.1-0.9,1.7c-0.2,0.3-0.3,0.5-0.5,0.8c-0.6,0.9-1.2,1.6-1.8,2.2C43.2,90.3,39.2,91.9,35,91.9L35,91.9z"/>
			</g>
		</g>
	</g>
	<g>
		<path class="st1" d="M163.9,63.3h-11.4v-8H185v8h-11.5v34.2h-9.5V63.3z"/>
		<path class="st1" d="M215.2,79.7h-15.5v10H217v7.8h-26.9V55.3h26v7.8h-16.5v8.8h15.5V79.7z"/>
		<path class="st1" d="M254.5,96.4c-1.7,0.8-5.7,1.8-10.8,1.8c-14.6,0-22.1-9.1-22.1-21.2c0-14.4,10.3-22.4,23.1-22.4
			c4.9,0,8.7,0.9,10.4,1.9l-2,7.5c-1.9-0.8-4.6-1.6-8-1.6c-7.5,0-13.4,4.6-13.4,14c0,8.5,5,13.8,13.5,13.8c2.9,0,6.1-0.6,8-1.4
			L254.5,96.4z"/>
		<path class="st1" d="M270.4,55.3v16.2h15.7V55.3h9.5v42.2h-9.5V79.9h-15.7v17.7h-9.5V55.3H270.4z"/>
		<path class="st1" d="M304.5,55.3h5.5V93h18v4.6h-23.6V55.3z"/>
		<path class="st1" d="M367.8,76c0,14.5-8.8,22.2-19.6,22.2c-11.2,0-19-8.7-19-21.5c0-13.4,8.3-22.2,19.5-22.2
			C360.3,54.6,367.8,63.4,367.8,76z M335,76.6c0,9.1,4.9,17.2,13.5,17.2c8.6,0,13.5-8,13.5-17.5c0-8.5-4.4-17.2-13.5-17.2
			S335,67.4,335,76.6z"/>
		<path class="st1" d="M407.1,95.7c-2.4,0.9-7.3,2.3-13,2.3c-6.4,0-11.7-1.6-15.8-5.6c-3.6-3.5-5.9-9.1-5.9-15.7
			c0-12.6,8.7-21.8,22.9-21.8c4.9,0,8.8,1.1,10.6,1.9l-1.4,4.4c-2.3-1.1-5.1-1.8-9.3-1.8c-10.3,0-17,6.4-17,17
			c0,10.7,6.4,17,16.3,17c3.6,0,6-0.5,7.3-1.1V79.7h-8.5v-4.4h13.9V95.7z"/>
		<path class="st1" d="M451.4,76c0,14.5-8.8,22.2-19.6,22.2c-11.2,0-19-8.7-19-21.5c0-13.4,8.3-22.2,19.5-22.2
			C443.9,54.6,451.4,63.4,451.4,76z M418.6,76.6c0,9.1,4.9,17.2,13.5,17.2c8.6,0,13.5-8,13.5-17.5c0-8.5-4.4-17.2-13.5-17.2
			C423.1,59,418.6,67.4,418.6,76.6z"/>
	</g>
</g>
</svg>
